<svg width="40" height="40" viewBox="0 0 40 40" fill="none" xmlns="http://www.w3.org/2000/svg">
<path d="M1.99986 0.59375C1.22321 0.59375 0.593613 1.22335 0.593613 2C0.593613 2.77665 1.22321 3.40625 1.99986 3.40625L1.99986 0.59375ZM6.99986 2L8.36412 1.65893C8.20762 1.03292 7.64514 0.59375 6.99986 0.59375L6.99986 2ZM33.9999 29.4062C34.7765 29.4062 35.4061 28.7766 35.4061 28C35.4061 27.2233 34.7765 26.5937 33.9999 26.5937V29.4062ZM37.9999 6L39.3641 6.34107C39.4691 5.92096 39.3748 5.4759 39.1083 5.13458C38.8418 4.79326 38.4329 4.59375 37.9999 4.59375V6ZM33.9999 22V23.4062C34.6451 23.4062 35.2076 22.9671 35.3641 22.3411L33.9999 22ZM1.99986 3.40625L6.99986 3.40625L6.99986 0.59375L1.99986 0.59375L1.99986 3.40625ZM5.6356 2.34107L6.6356 6.34107L9.36412 5.65893L8.36412 1.65893L5.6356 2.34107ZM6.6356 6.34107L10.6356 22.3411L13.3641 21.6589L9.36412 5.65893L6.6356 6.34107ZM11.9999 20.5937H10.9999V23.4062H11.9999V20.5937ZM10.9999 29.4062H33.9999V26.5937H10.9999V29.4062ZM6.59361 25C6.59361 27.4335 8.56636 29.4062 10.9999 29.4062V26.5937C10.1197 26.5937 9.40611 25.8802 9.40611 25H6.59361ZM10.9999 20.5937C8.56636 20.5937 6.59361 22.5665 6.59361 25H9.40611C9.40611 24.1198 10.1197 23.4062 10.9999 23.4062V20.5937ZM7.99986 7.40625H37.9999V4.59375H7.99986V7.40625ZM36.6356 5.65893L32.6356 21.6589L35.3641 22.3411L39.3641 6.34107L36.6356 5.65893ZM33.9999 20.5937H11.9999V23.4062H33.9999V20.5937ZM32.5936 36C32.5936 36.3279 32.3278 36.5937 31.9999 36.5937V39.4062C33.8811 39.4062 35.4061 37.8812 35.4061 36H32.5936ZM31.9999 36.5937C31.6719 36.5937 31.4061 36.3279 31.4061 36H28.5936C28.5936 37.8812 30.1186 39.4062 31.9999 39.4062V36.5937ZM31.4061 36C31.4061 35.6721 31.6719 35.4062 31.9999 35.4062V32.5937C30.1186 32.5937 28.5936 34.1188 28.5936 36H31.4061ZM31.9999 35.4062C32.3278 35.4062 32.5936 35.6721 32.5936 36H35.4061C35.4061 34.1188 33.8811 32.5937 31.9999 32.5937V35.4062ZM12.5936 36C12.5936 36.3279 12.3278 36.5937 11.9999 36.5937V39.4062C13.8811 39.4062 15.4061 37.8812 15.4061 36H12.5936ZM11.9999 36.5937C11.6719 36.5937 11.4061 36.3279 11.4061 36H8.59361C8.59361 37.8812 10.1186 39.4062 11.9999 39.4062V36.5937ZM11.4061 36C11.4061 35.6721 11.6719 35.4062 11.9999 35.4062V32.5937C10.1186 32.5937 8.59361 34.1188 8.59361 36H11.4061ZM11.9999 35.4062C12.3278 35.4062 12.5936 35.6721 12.5936 36H15.4061C15.4061 34.1188 13.8811 32.5937 11.9999 32.5937V35.4062Z" fill="black"/>
</svg>
